<svg width="69" height="221" viewBox="0 0 69 221" fill="none" xmlns="http://www.w3.org/2000/svg">
<g clip-path="url(#clip0_2401_67)">
<g style="mix-blend-mode:multiply" opacity="0.3">
<path d="M41.9424 221.175C55.5278 221.175 66.5409 218.361 66.5409 214.89C66.5409 211.419 55.5278 208.605 41.9424 208.605C28.3569 208.605 17.3438 211.419 17.3438 214.89C17.3438 218.361 28.3569 221.175 41.9424 221.175Z" fill="#BDCFD5"/>
</g>
<g style="mix-blend-mode:multiply" opacity="0.4">
<path d="M61.1872 112.193H51.4121L51.2088 110.295C52.9742 100.316 55.9614 90.5921 60.1029 81.3428C63.9147 73.4482 68.6921 65.5197 68.7598 56.7611C68.7598 49.595 65.6765 42.5813 66.5575 35.466L55.0205 55.6599C55.9184 46.2406 55.8676 32.6707 55.8676 20.7441C50.6328 28.8251 45.3471 36.9907 42.0944 46.0543C41.5862 47.4434 41.1118 49.002 40.6205 50.6284C40.6205 49.2618 40.6714 47.8896 40.7731 46.5117C41.078 41.3108 41.6539 36.1098 42.1791 30.9088C45.2455 30.9088 47.8036 28.8081 46.1095 23.9291C45.0083 20.7441 48.7523 19.8293 47.397 15.7973C47.1429 15.035 45.5674 13.8322 45.398 13.0359C44.2968 7.8011 47.8205 2.71875 44.7033 1.1771C42.6026 0.29616 40.6884 2.87123 40.3495 5.15829C40.0107 7.44535 40.1631 10.0881 38.4013 11.5281C37.7258 11.9311 37.0855 12.3902 36.4869 12.9004C34.9791 14.5945 36.4869 17.2373 36.3683 19.5075C36.2635 20.4772 36.0299 21.4286 35.6738 22.3366C35.1082 23.7293 35.083 25.2829 35.6032 26.6931C36.1234 28.1033 37.1515 29.2684 38.4859 29.9601C37.6652 36.5584 37.2409 43.2 37.2154 49.8491C33.2579 34.4056 26.6176 19.7775 17.5974 6.63216C16.2083 21.7437 16.6318 26.1315 17.75 34.8562C18.4445 40.3282 18.9358 45.4444 19.4441 50.2726C11.6342 39.0068 4.89161 29.8246 4.09537 30.0787C1.85914 48.5616 4.09537 58.506 14.2601 73.7023C17.2587 78.1917 32.3363 88.5427 35.9617 103.061C36.3853 104.671 36.9104 108.144 37.5033 112.26H30.7269C30.4332 112.26 30.1426 112.319 29.8732 112.436C29.6037 112.553 29.3613 112.724 29.161 112.939C28.9606 113.153 28.8067 113.407 28.7089 113.684C28.611 113.961 28.5714 114.255 28.5924 114.547L35.6907 210.18C35.7336 210.784 36.0041 211.349 36.4475 211.761C36.8909 212.173 37.4741 212.401 38.0794 212.4H53.7839C54.3909 212.402 54.9761 212.174 55.4223 211.762C55.8684 211.351 56.1425 210.786 56.1895 210.18L63.2709 114.547C63.3014 114.253 63.2706 113.956 63.1803 113.675C63.09 113.393 62.9422 113.134 62.7463 112.912C62.5504 112.691 62.3107 112.513 62.0423 112.389C61.7739 112.265 61.4827 112.198 61.1872 112.193Z" fill="#C1B5AA"/>
</g>
<path d="M38.7044 47.816C41.9571 38.7525 47.175 30.5868 52.4775 22.5059C52.4775 37.2277 52.4775 54.44 50.7834 63.3002C48.3947 75.6842 44.6338 90.7957 37.0102 100.943C29.5053 88.0004 33.8592 61.2165 38.7044 47.816Z" fill="#8A9636"/>
<path d="M40.5533 93.7101C39.9434 87.1369 39.3166 80.5638 38.317 74.0414C34.4375 48.5111 28.5927 29.7063 14.2097 8.25879C12.8205 23.3703 13.2441 27.7581 14.3622 36.4828C17.1914 58.6757 16.4968 75.1426 33.8276 89.2885C35.696 90.5285 37.2737 92.1582 38.4525 94.0658C40.9259 99.1482 38.8761 106.399 39.757 111.719C43.9076 108.093 41.1632 99.1821 40.5533 93.7101Z" fill="#66741F"/>
<path d="M37.7754 14.8658C34.1331 33.3148 32.1678 53.8306 35.6069 72.3812C39.4017 92.7106 46.3307 111.346 43.7387 132.404C43.5016 134.301 46.6357 134.691 47.127 132.861C51.1929 115.158 44.9246 97.0645 40.8587 79.9708C38.162 69.6089 37.0201 58.9037 37.4705 48.2061C38.1143 37.1774 39.9947 26.1826 39.927 15.1369C39.927 13.9849 38.0973 13.663 37.8601 14.8658H37.7754Z" fill="#66741F"/>
<path d="M38.8411 86.2389C29.5234 70.9919 2.43447 31.197 0.791174 31.7053C-1.44506 50.1881 0.791174 60.1326 10.9559 75.3288C13.9545 79.8182 29.0321 90.1693 32.6575 104.688C33.9789 109.889 36.6387 133.894 38.0787 139.129C46.2613 125.085 44.6011 95.6921 38.8411 86.2389Z" fill="#8A9636"/>
<path d="M48.7868 62.3009L63.2376 37.1602C62.3566 44.2755 65.5078 51.2891 65.44 58.4552C65.44 67.2138 60.5948 75.1423 56.783 83.0369C52.0225 92.8797 46.6184 111.718 46.3642 125.593C39.1812 109.821 40.2823 77.1413 48.7868 62.3009Z" fill="#66741F"/>
<path d="M57.7995 113.887H27.3901C27.0964 113.886 26.8058 113.946 26.5364 114.063C26.2669 114.179 26.0244 114.35 25.8241 114.565C25.6237 114.779 25.4698 115.033 25.372 115.31C25.2741 115.587 25.2345 115.881 25.2555 116.174L32.3538 211.807C32.3967 212.41 32.6672 212.975 33.1106 213.387C33.554 213.799 34.1373 214.028 34.7426 214.026H50.447C51.054 214.028 51.6392 213.8 52.0854 213.389C52.5315 212.977 52.8056 212.412 52.8526 211.807L59.9341 116.174C59.9551 115.881 59.9154 115.587 59.8176 115.31C59.7197 115.033 59.5657 114.779 59.3654 114.565C59.165 114.35 58.9226 114.179 58.6532 114.063C58.3837 113.946 58.0931 113.886 57.7995 113.887Z" fill="#7B6357"/>
<path d="M33.2176 123.95C38.8927 124.853 44.6702 124.91 50.362 124.119C50.6047 124.119 50.8374 124.023 51.0089 123.851C51.1805 123.68 51.2768 123.447 51.2768 123.204C51.2768 122.962 51.1805 122.729 51.0089 122.557C50.8374 122.386 50.6047 122.289 50.362 122.289C44.6703 121.498 38.8926 121.555 33.2176 122.459C33.0579 122.508 32.9179 122.606 32.8186 122.74C32.7192 122.875 32.6655 123.037 32.6655 123.204C32.6655 123.371 32.7192 123.534 32.8186 123.668C32.9179 123.802 33.0579 123.901 33.2176 123.95Z" fill="#6D564D"/>
<path d="M35.1145 135.91C40.3493 135.724 45.8552 136.351 51.0223 135.554C51.2186 135.5 51.3916 135.383 51.515 135.221C51.6383 135.058 51.705 134.86 51.705 134.657C51.705 134.453 51.6383 134.255 51.515 134.093C51.3916 133.93 51.2186 133.813 51.0223 133.759C45.9399 132.962 40.3493 133.589 35.1145 133.403C34.782 133.403 34.4631 133.535 34.228 133.77C33.9929 134.005 33.8608 134.324 33.8608 134.657C33.8608 134.989 33.9929 135.308 34.228 135.543C34.4631 135.778 34.782 135.91 35.1145 135.91Z" fill="#6D564D"/>
<path d="M35.8434 149.463C40.9887 150.436 46.2572 150.573 51.4462 149.87C51.6303 149.817 51.7922 149.706 51.9075 149.553C52.0228 149.401 52.0851 149.214 52.0851 149.023C52.0851 148.831 52.0228 148.645 51.9075 148.492C51.7922 148.339 51.6303 148.228 51.4462 148.176C46.2572 147.472 40.9887 147.61 35.8434 148.582C35.7472 148.609 35.6626 148.667 35.6022 148.746C35.5419 148.826 35.5093 148.923 35.5093 149.023C35.5093 149.123 35.5419 149.22 35.6022 149.299C35.6626 149.379 35.7472 149.436 35.8434 149.463Z" fill="#6D564D"/>
<path d="M35.9623 162.321L41.6714 162.694C43.3524 162.993 45.0729 162.993 46.7538 162.694C46.9492 162.629 47.119 162.504 47.2394 162.336C47.3597 162.169 47.4245 161.968 47.4245 161.762C47.4245 161.556 47.3597 161.356 47.2394 161.188C47.119 161.021 46.9492 160.896 46.7538 160.831C45.0729 160.532 43.3524 160.532 41.6714 160.831L35.9623 161.203C35.8095 161.203 35.663 161.264 35.555 161.372C35.447 161.48 35.3862 161.627 35.3862 161.779C35.3862 161.932 35.447 162.079 35.555 162.187C35.663 162.295 35.8095 162.355 35.9623 162.355V162.321Z" fill="#6D564D"/>
<path d="M37.6562 176.569C41.5001 177.24 45.4223 177.337 49.2948 176.857C49.4545 176.808 49.5944 176.71 49.6938 176.575C49.7932 176.441 49.8468 176.279 49.8468 176.112C49.8468 175.945 49.7932 175.782 49.6938 175.648C49.5944 175.514 49.4545 175.415 49.2948 175.366C45.4223 174.886 41.5001 174.983 37.6562 175.654C37.5349 175.654 37.4185 175.703 37.3327 175.788C37.247 175.874 37.1987 175.99 37.1987 176.112C37.1987 176.233 37.247 176.349 37.3327 176.435C37.4185 176.521 37.5349 176.569 37.6562 176.569Z" fill="#6D564D"/>
<path d="M37.9263 190.698C39.788 191.077 41.6852 191.253 43.5847 191.223C45.499 191.479 47.4435 191.393 49.3278 190.969C49.5119 190.917 49.6738 190.806 49.789 190.653C49.9043 190.5 49.9667 190.314 49.9667 190.122C49.9667 189.931 49.9043 189.745 49.789 189.592C49.6738 189.439 49.5119 189.328 49.3278 189.275C47.4435 188.852 45.499 188.765 43.5847 189.021C41.6852 188.992 39.788 189.168 37.9263 189.546C37.7973 189.578 37.6827 189.652 37.6007 189.756C37.5187 189.86 37.4741 189.989 37.4741 190.122C37.4741 190.255 37.5187 190.384 37.6007 190.488C37.6827 190.593 37.7973 190.667 37.9263 190.698Z" fill="#6D564D"/>
<path d="M32.2848 23.9628C32.641 23.0548 32.8745 22.1033 32.9793 21.1336C33.1318 18.8635 31.5902 16.2207 33.0979 14.5265C33.6965 14.0163 34.3369 13.5573 35.0123 13.1543C36.7064 11.7143 36.7064 9.05453 36.9606 6.78441C37.2147 4.5143 39.2136 1.92229 41.3144 2.80323C44.4315 4.41264 40.9078 9.49499 42.009 14.6621C42.1784 15.4583 43.7031 16.6611 44.008 17.4235C45.3633 21.4555 41.6193 22.3703 42.7205 25.5552C46.5492 36.5331 28.9813 33.6362 32.2848 23.9628Z" fill="#E29D36"/>
<path d="M38.5019 204.607C40.7932 205.083 43.1511 205.146 45.4647 204.793C45.6123 204.747 45.7413 204.654 45.8328 204.529C45.9243 204.404 45.9736 204.254 45.9736 204.099C45.9736 203.944 45.9243 203.793 45.8328 203.668C45.7413 203.543 45.6123 203.451 45.4647 203.404C43.1511 203.052 40.7932 203.115 38.5019 203.591C38.3671 203.591 38.2378 203.644 38.1424 203.739C38.0471 203.835 37.9937 203.964 37.9937 204.099C37.9937 204.234 38.0471 204.363 38.1424 204.458C38.2378 204.553 38.3671 204.607 38.5019 204.607Z" fill="#6D564D"/>
</g>
<defs>
<clipPath id="clip0_2401_67">
<rect width="68.78" height="220.18" fill="white"/>
</clipPath>
</defs>
</svg>
