<svg width="134" height="255" viewBox="0 0 134 255" fill="none" xmlns="http://www.w3.org/2000/svg">
<g clip-path="url(#clip0_2401_55)">
<g style="mix-blend-mode:multiply" opacity="0.3">
<path d="M63.9179 254.94C88.0479 254.94 107.609 250.859 107.609 245.826C107.609 240.792 88.0479 236.711 63.9179 236.711C39.7878 236.711 20.2266 240.792 20.2266 245.826C20.2266 250.859 39.7878 254.94 63.9179 254.94Z" fill="#BDCFD5"/>
</g>
<g style="mix-blend-mode:multiply" opacity="0.4">
<path d="M124.246 135.403C123.399 128.813 123.958 121.46 119.79 116.276C115.369 110.77 106.949 109.974 100.376 112.515C93.8024 115.056 88.6354 120.224 83.7224 125.289C78.5045 130.778 73.0834 136.47 70.034 143.433L69.8815 143.84C69.6951 141.163 69.441 138.503 69.1022 135.843C72.0791 130.326 75.4182 125.012 79.0975 119.936C91.73 100.862 99.842 79.1572 102.815 56.4739C91.4476 75.0584 78.1657 92.6095 69.3563 112.431C68.3398 114.718 67.3911 117.039 66.5271 119.41C65.4598 113.65 64.3078 107.89 63.3252 102.113C63.339 99.3938 62.9216 96.6892 62.0885 94.1003L61.9361 93.1007C64.542 85.7774 68.9666 79.2366 74.7944 74.0927C77.7083 71.5854 80.9102 69.4508 83.7563 66.8758C89.184 61.7949 93.0397 55.2631 94.8655 48.056C96.6913 40.8489 96.4105 33.2692 94.0565 26.217L85.5859 43.5478C83.9116 47.3389 81.8267 50.9349 79.3685 54.2715C76.5902 57.6598 73.0495 60.472 70.0509 63.7078C65.7278 68.4805 62.6648 74.257 61.1398 80.5134C61.3431 72.0428 62.7154 63.7586 63.1558 55.3727C71.2876 37.8047 87.7036 23.8791 91.3798 4.82024C87.2292 10.4617 79.9445 12.969 75.3535 18.2715C72.7134 21.6821 70.7053 25.5377 69.4241 29.656C67.7299 34.2979 65.0363 39.9732 63.1219 45.7332V44.8523C62.0089 29.8732 59.3231 15.0528 55.1088 0.635797C54.8377 -0.211262 53.4146 -0.109633 53.5163 0.856014C54.2448 15.6457 59.4457 30.0457 60.4283 44.9031C61.3092 58.456 56.7351 71.8226 56.6165 85.5619C40.4208 67.7737 46.0791 47.8339 30.5102 28.8428C18.6514 19.7115 14.3991 13.6974 3.4043 14.8663C14.3227 24.0074 23.5592 34.9868 30.6965 47.3087C32.0553 49.4295 33.0568 51.7587 33.6612 54.2038C33.9698 56.8402 34.0661 59.4973 33.9492 62.1492C34.5591 81.6993 53.8551 95.8452 59.5982 113.871L59.8184 113.566C60.8688 119.393 62.0038 125.204 62.9864 131.032C62.5968 132.608 62.241 134.166 61.9191 135.742C60.6854 132.844 59.2941 130.017 57.7516 127.271C47.0787 108.399 34.6608 90.2546 31.4928 68.8918C30.8659 68.3666 30.0528 69.2984 29.7987 70.0607C25.6802 81.9117 26.0053 94.855 30.7135 106.484C34.3728 115.463 40.5224 123.222 47.1634 130.287C49.189 132.251 50.985 134.439 52.5168 136.809C55.905 142.637 60.0217 148.956 60.3775 155.698H54.2787C47.9883 155.698 41.9557 158.197 37.5077 162.645C33.0598 167.093 30.561 173.126 30.561 179.416L43.3177 240.523C43.5226 241.619 44.1033 242.61 44.9599 243.324C45.8164 244.038 46.8951 244.432 48.0104 244.436H85.281C86.382 244.436 87.4493 244.057 88.3039 243.363C89.1585 242.669 89.7481 241.702 89.9737 240.624L102.73 179.518C102.73 173.227 100.232 167.195 95.7837 162.747C91.3358 158.299 85.3031 155.8 79.0128 155.8H75.8278C75.8278 154.8 75.7092 153.801 75.6076 152.801C75.1272 150.187 75.2197 147.499 75.8786 144.924C76.9968 141.79 79.9107 139.706 82.6551 137.808L96.5638 128.186C98.1179 126.937 99.9285 126.046 101.866 125.577C105.424 125.018 108.88 127.39 110.879 130.371C112.645 133.511 114.049 136.842 115.064 140.299C118.079 148.261 124.652 156.071 133.174 156.054C128.343 150.13 125.252 142.981 124.246 135.403Z" fill="#C1B5AA"/>
</g>
<path d="M66.6458 145.127C69.6275 138.096 74.9978 132.404 80.3173 126.915C85.2303 121.833 90.3804 116.751 96.9705 114.142C103.561 111.533 111.963 112.447 116.385 117.903C120.553 123.087 119.994 130.439 120.841 137.029C121.829 144.608 124.902 151.763 129.718 157.697C121.247 157.697 114.623 149.904 111.608 141.942C110.593 138.485 109.189 135.155 107.423 132.015C105.424 129.033 101.968 126.661 98.4105 127.22C96.4922 127.714 94.7053 128.622 93.1757 129.88L79.267 139.418C76.5225 141.315 73.6086 143.399 72.4905 146.533C71.8316 149.109 71.7391 151.796 72.2195 154.411C72.9978 162.668 72.2979 170.998 70.1526 179.009C58.819 174.181 63.2576 153.445 66.6458 145.127Z" fill="#8A9636"/>
<path d="M63.3767 143.772C65.7146 135.623 71.0849 128.762 75.7776 121.748C88.4102 102.675 96.5221 80.9696 99.4953 58.2864C88.06 76.7523 74.7781 94.3034 65.9687 114.125C57.1593 133.946 53.1781 157.257 61.259 177.434C60.2256 168.031 60.7677 152.869 63.3767 143.772Z" fill="#8A9636"/>
<path d="M54.329 128.847C43.6899 110.093 31.272 91.9488 28.1041 70.5859C27.4772 70.0608 26.6641 70.9925 26.4099 71.7549C22.2915 83.6058 22.6166 96.5491 27.3248 108.178C30.9841 117.157 37.1337 124.916 43.7746 131.981C45.8003 133.945 47.5962 136.133 49.128 138.503C52.5163 144.331 56.633 150.65 56.9888 157.393C57.3276 163.661 62.8335 173.029 67.5601 177.4C67.1873 167.71 64.1549 146.194 54.329 128.847Z" fill="#8A9636"/>
<path d="M63.7998 175.757C71.9823 147.465 61.3772 119.851 58.1753 91.6608C56.4812 76.4137 61.0214 61.7257 59.7339 46.5803C58.6208 31.6012 55.935 16.7808 51.7207 2.36381C51.4496 1.51675 50.0266 1.61841 50.1282 2.58406C50.8567 17.3737 56.0576 31.7737 57.0402 46.6311C57.9889 61.1497 52.6525 75.4311 53.2793 90.2546C54.4652 118.597 66.3409 146.398 60.4962 174.961C60.3749 175.41 60.4371 175.889 60.669 176.292C60.9009 176.696 61.2836 176.991 61.7329 177.112C62.1822 177.233 62.6613 177.171 63.0648 176.939C63.4683 176.707 63.7632 176.325 63.8845 175.875L63.7998 175.757Z" fill="#8A9636"/>
<path d="M66.6448 65.5035C69.6434 62.2678 73.1841 59.5233 75.9625 56.0673C78.4206 52.7306 80.5055 49.1346 82.1799 45.3435L90.6504 28.0127C93.0044 35.065 93.2852 42.6447 91.4594 49.8518C89.6336 57.0589 85.7779 63.5906 80.3502 68.6715C77.5041 71.2466 74.3022 73.3812 71.3883 75.8885C62.7314 83.3595 57.8354 93.6598 55.7855 104.688C55.4297 90.6442 56.802 76.1765 66.6448 65.5035Z" fill="#8A9636"/>
<path d="M54.5493 88.6114C36.7102 70.4674 43.114 49.9855 27.1215 30.4862C15.2627 21.3549 11.0104 15.3407 0.015625 16.5097C10.9341 25.6508 20.1705 36.6302 27.3079 48.9521C28.6666 51.0728 29.6681 53.4021 30.2726 55.8471C30.5812 58.4836 30.6775 61.1406 30.5606 63.7925C31.1705 83.3426 50.4664 97.4885 56.2095 115.514C62.2744 107.992 60.4448 94.6086 54.5493 88.6114Z" fill="#8A9636"/>
<path d="M66.0869 31.3841C67.3681 27.2658 69.3763 23.4102 72.0163 19.9997C76.6073 14.6971 83.8751 12.1898 88.0426 6.54834C84.0106 27.4707 64.613 42.1248 57.6841 62.3017C56.1932 52.6622 62.8172 40.0919 66.0869 31.3841Z" fill="#8A9636"/>
<path d="M76.4518 157H51.7176C45.4273 157 39.3947 159.499 34.9467 163.947C30.4988 168.395 28 174.427 28 180.718L40.7567 241.824C40.9686 242.914 41.5523 243.897 42.4082 244.605C43.264 245.312 44.339 245.701 45.4494 245.704H82.72C83.8209 245.704 84.8883 245.325 85.7429 244.631C86.5974 243.937 87.1871 242.97 87.4127 241.892L100.169 180.785C100.178 177.665 99.5714 174.574 98.3835 171.688C97.1956 168.803 95.4499 166.18 93.2467 163.971C91.0434 161.761 88.4258 160.008 85.5438 158.812C82.6618 157.616 79.5721 157 76.4518 157Z" fill="#7B6357"/>
<path d="M42.0616 165.945C56.9698 166.301 72.5557 167.402 87.3793 165.945C87.5275 165.945 87.6697 165.886 87.7746 165.781C87.8794 165.676 87.9383 165.534 87.9383 165.386C87.9383 165.237 87.8794 165.095 87.7746 164.99C87.6697 164.886 87.5275 164.827 87.3793 164.827C72.5388 163.437 56.8851 164.539 42.0616 164.827C41.9313 164.827 41.8063 164.878 41.7142 164.971C41.6221 165.063 41.5703 165.188 41.5703 165.318C41.5703 165.448 41.6221 165.573 41.7142 165.665C41.8063 165.757 41.9313 165.809 42.0616 165.809V165.945Z" fill="#6D564D"/>
<path d="M37.4014 190.442C55.3421 191.001 73.6894 191.865 91.6131 190.56C91.7479 190.56 91.8772 190.507 91.9725 190.412C92.0678 190.316 92.1214 190.187 92.1214 190.052C92.1214 189.917 92.0678 189.788 91.9725 189.693C91.8772 189.597 91.7479 189.544 91.6131 189.544C73.6894 188.239 55.3421 189.103 37.4014 189.662C37.298 189.662 37.1989 189.704 37.1258 189.777C37.0528 189.85 37.0117 189.949 37.0117 190.052C37.0117 190.155 37.0528 190.255 37.1258 190.328C37.1989 190.401 37.298 190.442 37.4014 190.442Z" fill="#6D564D"/>
<path d="M43.7569 203.165C56.2425 203.487 68.9823 204.114 81.451 203.165C81.5813 203.165 81.7063 203.113 81.7984 203.021C81.8905 202.929 81.9423 202.804 81.9423 202.674C81.9423 202.543 81.8905 202.418 81.7984 202.326C81.7063 202.234 81.5813 202.182 81.451 202.182C68.9823 201.284 56.2595 201.911 43.7569 202.182C43.6401 202.182 43.528 202.229 43.4454 202.311C43.3628 202.394 43.3164 202.506 43.3164 202.623C43.3164 202.74 43.3628 202.852 43.4454 202.934C43.528 203.017 43.6401 203.063 43.7569 203.063V203.165Z" fill="#6D564D"/>
<path d="M44.6033 215.481C57.5763 216.37 70.595 216.37 83.568 215.481C83.6713 215.481 83.7704 215.44 83.8435 215.367C83.9166 215.294 83.9576 215.195 83.9576 215.091C83.9576 214.988 83.9166 214.889 83.8435 214.816C83.7704 214.743 83.6713 214.702 83.568 214.702C70.595 213.812 57.5763 213.812 44.6033 214.702C44.4775 214.702 44.3568 214.752 44.2678 214.841C44.1789 214.93 44.1289 215.05 44.1289 215.176C44.1289 215.302 44.1789 215.423 44.2678 215.512C44.3568 215.6 44.4775 215.65 44.6033 215.65V215.481Z" fill="#6D564D"/>
<path d="M46.721 226.323C58.9901 227.057 71.2894 227.148 83.568 226.594C83.7208 226.594 83.8673 226.534 83.9753 226.426C84.0833 226.318 84.144 226.171 84.144 226.018C84.144 225.865 84.0833 225.719 83.9753 225.611C83.8673 225.503 83.7208 225.442 83.568 225.442C71.2894 224.889 58.9901 224.979 46.721 225.713C46.6401 225.713 46.5625 225.745 46.5053 225.803C46.4481 225.86 46.416 225.937 46.416 226.018C46.416 226.099 46.4481 226.177 46.5053 226.234C46.5625 226.291 46.6401 226.323 46.721 226.323Z" fill="#6D564D"/>
<path d="M46.2985 237.403C56.7174 238.487 67.2207 238.487 77.6397 237.403C77.761 237.403 77.8773 237.355 77.9631 237.269C78.0489 237.183 78.0971 237.067 78.0971 236.945C78.0971 236.824 78.0489 236.708 77.9631 236.622C77.8773 236.536 77.761 236.488 77.6397 236.488C67.2207 235.404 56.7174 235.404 46.2985 236.488C46.1996 236.488 46.1048 236.527 46.0349 236.597C45.9651 236.667 45.9258 236.762 45.9258 236.861C45.9258 236.96 45.9651 237.054 46.0349 237.124C46.1048 237.194 46.1996 237.233 46.2985 237.233V237.403Z" fill="#6D564D"/>
<path d="M36.1324 177.533C45.3823 177.973 54.6152 178.007 63.882 178.024C73.1489 178.041 82.5173 178.939 91.6147 177.821C91.7495 177.821 91.8788 177.767 91.9741 177.672C92.0694 177.576 92.123 177.447 92.123 177.312C92.123 177.178 92.0694 177.048 91.9741 176.953C91.8788 176.858 91.7495 176.804 91.6147 176.804C82.5682 175.686 72.9795 176.567 63.882 176.601C54.7846 176.635 45.3823 176.601 36.1324 177.109C36.0864 177.122 36.0459 177.15 36.0171 177.188C35.9882 177.226 35.9727 177.273 35.9727 177.321C35.9727 177.369 35.9882 177.415 36.0171 177.453C36.0459 177.492 36.0864 177.519 36.1324 177.533Z" fill="#6D564D"/>
</g>
<defs>
<clipPath id="clip0_2401_55">
<rect width="133.16" height="254.88" fill="white"/>
</clipPath>
</defs>
</svg>
