<svg width="12" height="9" viewBox="0 0 12 9" fill="none" xmlns="http://www.w3.org/2000/svg">
<path d="M0.796002 8.56521H11.0945C11.4486 8.56521 11.7382 8.27557 11.7382 7.92155C11.7382 7.56754 11.4486 7.27789 11.0945 7.27789H0.796002C0.44199 7.27789 0.152344 7.56754 0.152344 7.92155C0.152344 8.27557 0.44199 8.56521 0.796002 8.56521ZM0.796002 5.34692H11.0945C11.4486 5.34692 11.7382 5.05727 11.7382 4.70326C11.7382 4.34925 11.4486 4.0596 11.0945 4.0596H0.796002C0.44199 4.0596 0.152344 4.34925 0.152344 4.70326C0.152344 5.05727 0.44199 5.34692 0.796002 5.34692ZM0.152344 1.48497C0.152344 1.83898 0.44199 2.12863 0.796002 2.12863H11.0945C11.4486 2.12863 11.7382 1.83898 11.7382 1.48497C11.7382 1.13095 11.4486 0.841309 11.0945 0.841309H0.796002C0.44199 0.841309 0.152344 1.13095 0.152344 1.48497Z" fill="black"/>
</svg>
